<svg xmlns="http://www.w3.org/2000/svg" xmlns:osb="http://www.openswatchbook.org/uri/2009/osb" xmlns:svg="http://www.w3.org/2000/svg" xmlns:xlink="http://www.w3.org/1999/xlink" id="svg8" width="500" height="500" version="1.1" viewBox="0 0 132.292 132.292"><defs id="defs2"><linearGradient id="Gradient"><stop id="stop2826" offset="0" style="stop-color:#d400dc;stop-opacity:1"/><stop id="stop2828" offset="1" style="stop-color:#0096cc;stop-opacity:1"/></linearGradient><linearGradient id="linearGradient858" osb:paint="gradient"><stop id="stop854" offset="0" style="stop-color:#000;stop-opacity:1"/><stop id="stop856" offset="1" style="stop-color:#000;stop-opacity:0"/></linearGradient><filter style="color-interpolation-filters:sRGB" id="filter5014" width="1.077" height="1.077" x="-.038" y="-.038"><feGaussianBlur id="feGaussianBlur5016" stdDeviation="1.905"/></filter><linearGradient id="linearGradient2832" x1="51.975" x2="80.321" y1="51.971" y2="80.317" gradientUnits="userSpaceOnUse" xlink:href="#Gradient"/><filter id="filter2840" width="1.24" height="1.24" x="-.12" y="-.12" style="color-interpolation-filters:sRGB"><feGaussianBlur id="feGaussianBlur2842" stdDeviation="3.576"/></filter></defs><metadata id="metadata5"/><g style="display:inline" id="layer1"><circle style="display:inline;opacity:.36;fill:#000;fill-opacity:1;fill-rule:evenodd;stroke-width:.256424;filter:url(#filter5014)" id="circle3352" cx="66.146" cy="68.065" r="59.531"/><circle id="path1917" cx="66.146" cy="66.146" r="59.531" style="display:inline;fill:#fff;fill-opacity:1;fill-rule:evenodd;stroke-width:.256424"/></g><g style="display:inline" id="layer2"><path style="opacity:.16;fill:#000;fill-opacity:1;stroke-width:3.548;stroke-miterlimit:4;stroke-dasharray:none;filter:url(#filter2840)" id="path20" d="M 70.493758,106.55817 64.711033,92.970643 c 5.569856,-2.057672 10.784929,-4.824808 15.609791,-8.053308 L 70.493758,106.55817 M 43.921635,72.18124 30.334044,66.398526 51.974883,56.571405 C 48.746497,61.396346 45.979285,66.611322 43.921635,72.18124 M 100.57804,36.314182 c 0,0 -17.560985,-7.524598 -37.640832,12.558844 -7.769414,7.769447 -12.416879,16.319272 -15.432408,23.80485 -0.993314,2.660799 -0.319266,5.569924 1.631931,7.556543 l 7.556551,7.52111 c 1.951214,1.986743 4.860338,2.62526 7.521075,1.631948 7.592024,-2.909122 16.03551,-7.662972 23.804904,-15.432418 C 108.09917,53.875214 100.57804,36.314182 100.57804,36.314182 M 75.495962,61.396346 c -2.767167,-2.767266 -2.767167,-7.27279 0,-10.039916 2.767189,-2.767248 7.272752,-2.767248 10.039924,0 2.731722,2.767126 2.767191,7.27265 0,10.039916 -2.767172,2.767115 -7.272735,2.767115 -10.039924,0 m -20.079831,25.082009 -5.00223,-5.002192 5.00223,5.002192 M 46.050245,105.88415 58.963788,92.970643 c -1.206231,-0.319115 -2.376935,-0.85144 -3.44123,-1.596416 L 41.048041,105.88415 h 5.002204 m -15.042142,0 h 5.00223 L 52.93274,88.997295 47.89505,83.994958 31.008103,100.88196 v 5.00219 m 0,-10.039912 14.509995,-14.474523 C 44.77314,80.305066 44.240943,79.170173 43.921635,77.92854 L 31.008103,90.842026 Z"/><path id="path2834" d="M 70.493758,101.95816 64.711033,88.370634 c 5.569856,-2.057672 10.784929,-4.824808 15.609791,-8.053308 L 70.493758,101.95816 M 43.921635,67.581231 30.334044,61.798517 51.974883,51.971396 c -3.228386,4.824941 -5.995598,10.039917 -8.053248,15.609835 M 100.57804,31.714173 c 0,0 -17.560985,-7.524598 -37.640832,12.558844 -7.769414,7.769447 -12.416879,16.319272 -15.432408,23.80485 -0.993314,2.660799 -0.319266,5.569924 1.631931,7.556543 l 7.556551,7.52111 c 1.951214,1.986743 4.860338,2.62526 7.521075,1.631948 C 71.806381,81.878346 80.249867,77.124496 88.019261,69.35505 108.09917,49.275205 100.57804,31.714173 100.57804,31.714173 M 75.495962,56.796337 c -2.767167,-2.767266 -2.767167,-7.27279 0,-10.039916 2.767189,-2.767248 7.272752,-2.767248 10.039924,0 2.731722,2.767126 2.767191,7.27265 0,10.039916 -2.767172,2.767115 -7.272735,2.767115 -10.039924,0 m -20.079831,25.082009 -5.00223,-5.002192 5.00223,5.002192 M 46.050245,101.28414 58.963788,88.370634 c -1.206231,-0.319115 -2.376935,-0.85144 -3.44123,-1.596416 L 41.048041,101.28414 h 5.002204 m -15.042142,0 h 5.00223 L 52.93274,84.397286 47.89505,79.394949 31.008103,96.281947 v 5.002193 m 0,-10.039911 14.509995,-14.474523 C 44.77314,75.705057 44.240943,74.570164 43.921635,73.328531 L 31.008103,86.242017 Z" style="fill:url(#linearGradient2832);fill-opacity:1;stroke-width:3.548;stroke-miterlimit:4;stroke-dasharray:none"/></g></svg>